<svg width="20" height="20" viewBox="0 0 20 20" fill="none" xmlns="http://www.w3.org/2000/svg">
<path d="M20 10C20 14.8325 15.5225 18.75 10 18.75C9.00956 18.7513 8.02323 18.6227 7.06625 18.3675C6.33625 18.7375 4.66 19.4475 1.84 19.91C1.59 19.95 1.4 19.69 1.49875 19.4575C1.94125 18.4125 2.34125 17.02 2.46125 15.75C0.93 14.2125 0 12.2 0 10C0 5.1675 4.4775 1.25 10 1.25C15.5225 1.25 20 5.1675 20 10ZM5.625 6.25C5.45924 6.25 5.30027 6.31585 5.18306 6.43306C5.06585 6.55027 5 6.70924 5 6.875C5 7.04076 5.06585 7.19973 5.18306 7.31694C5.30027 7.43415 5.45924 7.5 5.625 7.5H14.375C14.5408 7.5 14.6997 7.43415 14.8169 7.31694C14.9342 7.19973 15 7.04076 15 6.875C15 6.70924 14.9342 6.55027 14.8169 6.43306C14.6997 6.31585 14.5408 6.25 14.375 6.25H5.625ZM5.625 9.375C5.45924 9.375 5.30027 9.44085 5.18306 9.55806C5.06585 9.67527 5 9.83424 5 10C5 10.1658 5.06585 10.3247 5.18306 10.4419C5.30027 10.5592 5.45924 10.625 5.625 10.625H14.375C14.5408 10.625 14.6997 10.5592 14.8169 10.4419C14.9342 10.3247 15 10.1658 15 10C15 9.83424 14.9342 9.67527 14.8169 9.55806C14.6997 9.44085 14.5408 9.375 14.375 9.375H5.625ZM5.625 12.5C5.45924 12.5 5.30027 12.5658 5.18306 12.6831C5.06585 12.8003 5 12.9592 5 13.125C5 13.2908 5.06585 13.4497 5.18306 13.5669C5.30027 13.6842 5.45924 13.75 5.625 13.75H10.625C10.7908 13.75 10.9497 13.6842 11.0669 13.5669C11.1842 13.4497 11.25 13.2908 11.25 13.125C11.25 12.9592 11.1842 12.8003 11.0669 12.6831C10.9497 12.5658 10.7908 12.5 10.625 12.5H5.625Z" fill="current"/>
</svg>
