<svg width="20" height="20" viewBox="0 0 20 20" fill="none" xmlns="http://www.w3.org/2000/svg">
<path fill-rule="evenodd" clip-rule="evenodd" d="M2.85709 17.1429C2.38387 16.6697 2.38387 15.9024 2.85709 15.4292L15.4295 2.85685C15.9027 2.38362 16.6699 2.38362 17.1432 2.85685V2.85685C17.6164 3.33007 17.6164 4.09732 17.1432 4.57054L4.57078 17.1429C4.09756 17.6161 3.33031 17.6161 2.85709 17.1429V17.1429Z" fill="current"/>
<path fill-rule="evenodd" clip-rule="evenodd" d="M17.1429 17.1429C16.6697 17.6161 15.9024 17.6161 15.4292 17.1429L2.85685 4.57054C2.38362 4.09732 2.38362 3.33007 2.85685 2.85685V2.85685C3.33007 2.38362 4.09732 2.38362 4.57054 2.85684L17.1429 15.4292C17.6161 15.9024 17.6161 16.6697 17.1429 17.1429V17.1429Z" fill="current"/>
</svg>
