<svg width="20" height="20" viewBox="0 0 20 20" fill="none" xmlns="http://www.w3.org/2000/svg">
<path fill-rule="evenodd" clip-rule="evenodd" d="M16 6.66634C16.1768 6.66634 16.3464 6.73658 16.4714 6.8616C16.5964 6.98663 16.6667 7.1562 16.6667 7.33301L16.6667 17.9997C16.6667 18.1765 16.5964 18.3461 16.4714 18.4711C16.3464 18.5961 16.1768 18.6663 16 18.6663L4 18.6663C3.82319 18.6663 3.65362 18.5961 3.52859 18.4711C3.40357 18.3461 3.33333 18.1765 3.33333 17.9997L3.33333 7.33301C3.33333 7.1562 3.40357 6.98663 3.52859 6.8616C3.65362 6.73658 3.82319 6.66634 4 6.66634L6.66667 6.66634C6.84348 6.66634 7.01305 6.5961 7.13807 6.47108C7.2631 6.34605 7.33333 6.17649 7.33333 5.99967C7.33333 5.82286 7.2631 5.65329 7.13807 5.52827C7.01305 5.40325 6.84348 5.33301 6.66667 5.33301L4 5.33301C3.46957 5.33301 2.96086 5.54372 2.58579 5.91879C2.21071 6.29387 2 6.80257 2 7.33301L2 17.9997C2 18.5301 2.21071 19.0388 2.58579 19.4139C2.96086 19.789 3.46957 19.9997 4 19.9997L16 19.9997C16.5304 19.9997 17.0391 19.789 17.4142 19.4139C17.7893 19.0388 18 18.5301 18 17.9997L18 7.33301C18 6.80257 17.7893 6.29387 17.4142 5.91879C17.0391 5.54372 16.5304 5.33301 16 5.33301L13.3333 5.33301C13.1565 5.33301 12.987 5.40325 12.8619 5.52827C12.7369 5.65329 12.6667 5.82286 12.6667 5.99967C12.6667 6.17649 12.7369 6.34605 12.8619 6.47108C12.987 6.5961 13.1565 6.66634 13.3333 6.66634L16 6.66634Z" fill="current"/>
<path fill-rule="evenodd" clip-rule="evenodd" d="M9.52846 14.471C9.59039 14.5331 9.66395 14.5824 9.74495 14.616C9.82594 14.6496 9.91277 14.6669 10.0005 14.6669C10.0881 14.6669 10.175 14.6496 10.256 14.616C10.337 14.5824 10.4105 14.5331 10.4725 14.471L14.4725 10.471C14.5344 10.409 14.5836 10.3355 14.6172 10.2545C14.6507 10.1735 14.668 10.0867 14.668 9.99902C14.668 9.91137 14.6507 9.82456 14.6172 9.74358C14.5836 9.66259 14.5344 9.58901 14.4725 9.52702C14.4105 9.46504 14.3369 9.41587 14.2559 9.38233C14.1749 9.34878 14.0881 9.33151 14.0005 9.33151C13.9128 9.33151 13.826 9.34878 13.745 9.38233C13.664 9.41587 13.5904 9.46504 13.5285 9.52702L10.6671 12.3897L10.6671 0.66569C10.6671 0.488879 10.5969 0.31931 10.4719 0.194285C10.3468 0.0692611 10.1773 -0.000976759 10.0005 -0.000976767C9.82365 -0.000976774 9.65408 0.0692611 9.52905 0.194285C9.40403 0.31931 9.33379 0.488879 9.33379 0.66569L9.33379 12.3897L6.47246 9.52702C6.41048 9.46504 6.33689 9.41587 6.2559 9.38233C6.17492 9.34878 6.08812 9.33151 6.00046 9.33151C5.9128 9.33151 5.826 9.34878 5.74501 9.38233C5.66403 9.41587 5.59044 9.46504 5.52846 9.52702C5.46647 9.58901 5.41731 9.66259 5.38376 9.74358C5.35022 9.82456 5.33295 9.91136 5.33295 9.99902C5.33295 10.0867 5.35022 10.1735 5.38376 10.2545C5.41731 10.3355 5.46647 10.409 5.52846 10.471L9.52846 14.471V14.471Z" fill="current"/>
</svg>
