<svg width="100%" height="100%" viewBox="0 0 43 44" fill="none" xmlns="http://www.w3.org/2000/svg">
<rect y="0.761719" width="42.4952" height="42.4952" rx="4" fill="rgb(50, 50, 50)"/>
<path d="M21.2501 13.6954C16.6487 13.6954 12.9372 17.4078 12.9372 22.0102C12.9372 26.6126 16.6487 30.325 21.2501 30.325C25.8515 30.325 29.5631 26.6126 29.5631 22.0102C29.5631 17.4078 25.8515 13.6954 21.2501 13.6954ZM21.2501 27.4159C18.2766 27.4159 15.8456 24.9916 15.8456 22.0102C15.8456 19.0287 18.2693 16.6045 21.2501 16.6045C24.2309 16.6045 26.6546 19.0287 26.6546 22.0102C26.6546 24.9916 24.2237 27.4159 21.2501 27.4159ZM31.8421 13.3553C31.8421 14.4335 30.9739 15.2947 29.9031 15.2947C28.8251 15.2947 27.9641 14.4263 27.9641 13.3553C27.9641 12.2843 28.8323 11.4159 29.9031 11.4159C30.9739 11.4159 31.8421 12.2843 31.8421 13.3553ZM37.3478 15.3236C37.2248 12.7257 36.6316 10.4245 34.7288 8.52852C32.8332 6.63255 30.5325 6.03915 27.9352 5.9089C25.2583 5.75693 17.2348 5.75693 14.5578 5.9089C11.9677 6.03192 9.66703 6.62531 7.76424 8.52129C5.86146 10.4173 5.27543 12.7185 5.1452 15.3164C4.99327 17.9939 4.99327 26.0192 5.1452 28.6967C5.26819 31.2947 5.86146 33.5959 7.76424 35.4918C9.66703 37.3878 11.9605 37.9812 14.5578 38.1115C17.2348 38.2634 25.2583 38.2634 27.9352 38.1115C30.5325 37.9885 32.8332 37.3951 34.7288 35.4918C36.6243 33.5959 37.2176 31.2947 37.3478 28.6967C37.4998 26.0192 37.4998 18.0011 37.3478 15.3236ZM33.8895 31.5696C33.3252 32.988 32.2327 34.0807 30.8075 34.6524C28.6732 35.4991 23.6087 35.3037 21.2501 35.3037C18.8916 35.3037 13.8199 35.4918 11.6928 34.6524C10.2748 34.088 9.18229 32.9952 8.61073 31.5696C7.76424 29.4349 7.95958 24.3693 7.95958 22.0102C7.95958 19.6511 7.77148 14.5783 8.61073 12.4507C9.17505 11.0324 10.2675 9.93965 11.6928 9.36796C13.8271 8.52129 18.8916 8.71667 21.2501 8.71667C23.6087 8.71667 28.6804 8.52852 30.8075 9.36796C32.2255 9.93241 33.318 11.0251 33.8895 12.4507C34.736 14.5855 34.5407 19.6511 34.5407 22.0102C34.5407 24.3693 34.736 29.4421 33.8895 31.5696Z" fill="white"/>
</svg>
