<svg width="17" height="16" viewBox="0 0 17 16" fill="none" xmlns="http://www.w3.org/2000/svg">
<path d="M0.429688 8C0.429688 5.87827 1.28261 3.84344 2.80081 2.34315C4.31902 0.842855 6.37814 0 8.52521 0C10.6723 0 12.7314 0.842855 14.2496 2.34315C15.7678 3.84344 16.6207 5.87827 16.6207 8C16.6207 10.1217 15.7678 12.1566 14.2496 13.6569C12.7314 15.1571 10.6723 16 8.52521 16C6.37814 16 4.31902 15.1571 2.80081 13.6569C1.28261 12.1566 0.429688 10.1217 0.429688 8ZM8.01924 1.077C7.34124 1.281 6.6683 1.897 6.10971 2.932C5.965 3.2 5.83041 3.492 5.70999 3.804C6.42341 3.961 7.19957 4.061 8.01924 4.091V1.077ZM4.72942 3.539C4.87312 3.155 5.03705 2.795 5.21617 2.461C5.39114 2.13406 5.5932 1.82199 5.82029 1.528C4.9588 1.8808 4.17614 2.398 3.51712 3.05C3.88344 3.234 4.28923 3.398 4.72942 3.539ZM3.98059 7.5C4.01702 6.43 4.17083 5.413 4.42179 4.492C3.87403 4.31889 3.34383 4.09559 2.83811 3.825C2.03214 4.89435 1.55377 6.16987 1.45984 7.5H3.97957H3.98059ZM5.3973 4.759C5.15874 5.65477 5.02296 6.57422 4.99253 7.5H8.01924V5.091C7.09837 5.061 6.21495 4.946 5.3973 4.759ZM9.03118 5.09V7.5H12.0569C12.0268 6.57426 11.8914 5.6548 11.6531 4.759C10.8355 4.946 9.95205 5.059 9.03118 5.09ZM4.99354 8.5C5.02896 9.487 5.17164 10.414 5.3973 11.241C6.25852 11.0479 7.13654 10.937 8.01924 10.91V8.5H4.99354ZM9.03118 8.5V10.909C9.95205 10.939 10.8355 11.054 11.6531 11.241C11.8788 10.414 12.0215 9.487 12.0579 8.5H9.03118ZM5.70999 12.196C5.83142 12.508 5.965 12.8 6.10971 13.068C6.6683 14.103 7.34225 14.718 8.01924 14.923V11.91C7.19957 11.94 6.42341 12.039 5.70999 12.196ZM5.82131 14.472C5.59385 14.1781 5.39144 13.866 5.21617 13.539C5.02979 13.1904 4.86718 12.83 4.72942 12.46C4.31314 12.5922 3.90783 12.756 3.51712 12.95C4.17614 13.602 4.9588 14.1192 5.82029 14.472H5.82131ZM4.42179 11.508C4.15907 10.5252 4.0107 9.51603 3.97957 8.5H1.45984C1.55372 9.83014 2.03209 11.1057 2.83811 12.175C3.31372 11.917 3.84499 11.693 4.42179 11.508ZM11.2301 14.472C12.0912 14.1194 12.8735 13.6026 13.5323 12.951C13.1419 12.7571 12.7369 12.5932 12.321 12.461C12.1832 12.8306 12.0206 13.1908 11.8343 13.539C11.6593 13.866 11.4573 14.178 11.2301 14.472ZM9.03118 11.909V14.923C9.70918 14.719 10.3821 14.103 10.9407 13.068C11.0854 12.8 11.22 12.508 11.3404 12.196C10.5811 12.0315 9.80813 11.9347 9.03118 11.909ZM12.6286 11.508C13.2054 11.693 13.7367 11.917 14.2123 12.175C15.0183 11.1057 15.4967 9.83014 15.5906 8.5H13.0708C13.0397 9.51603 12.8914 10.5252 12.6286 11.508ZM15.5906 7.5C15.4967 6.16986 15.0183 4.89433 14.2123 3.825C13.7367 4.083 13.2054 4.307 12.6286 4.492C12.8796 5.412 13.0334 6.43 13.0708 7.5H15.5906ZM11.8343 2.461C12.0134 2.795 12.1773 3.155 12.322 3.539C12.7376 3.40675 13.1422 3.24292 13.5323 3.049C12.8734 2.39782 12.0911 1.88132 11.2301 1.529C11.4507 1.812 11.6531 2.126 11.8343 2.461ZM11.3404 3.804C11.2255 3.50549 11.092 3.21427 10.9407 2.932C10.3821 1.897 9.70918 1.282 9.03118 1.077V4.09C9.85085 4.06 10.627 3.961 11.3404 3.804Z" fill="#343434"/>
</svg>
