<svg width="20" height="20" viewBox="0 0 20 20" fill="none" xmlns="http://www.w3.org/2000/svg">
<path d="M7.78233 1.53491C9.3816 2.29668 10.7323 3.49613 11.6777 4.99423C12.6232 6.49234 13.1248 8.22774 13.1244 9.9993C13.1248 11.7709 12.6232 13.5063 11.6777 15.0044C10.7323 16.5025 9.3816 17.7019 7.78233 18.4637C9.07594 18.8014 10.4298 18.8381 11.7398 18.571C13.0498 18.3038 14.2811 17.7398 15.3392 16.9224C16.3972 16.1051 17.2539 15.056 17.8433 13.8559C18.4327 12.6557 18.7391 11.3364 18.7391 9.9993C18.7391 8.66221 18.4327 7.34291 17.8433 6.14275C17.2539 4.9426 16.3972 3.89354 15.3392 3.07616C14.2811 2.25878 13.0498 1.69483 11.7398 1.42765C10.4298 1.16047 9.07594 1.19717 7.78233 1.53491V1.53491ZM5.23563 1.20873C7.56698 -0.0552421 10.3049 -0.341237 12.8471 0.413666C15.3893 1.16857 17.5275 2.90253 18.7914 5.2341C20.0552 7.56567 20.3412 10.3039 19.5864 12.8463C18.8315 15.3887 17.0977 17.5271 14.7664 18.7911C12.4347 20.0553 9.6964 20.3413 7.15385 19.5863C4.6113 18.8312 2.47279 17.097 1.20877 14.7651C-0.0552559 12.4332 -0.341251 9.69466 0.413698 7.15187C1.16865 4.60909 2.9027 2.47038 5.23438 1.20623L5.23563 1.20873Z" fill="current"/>
</svg>
