<svg width="100%" height="100%" viewBox="0 0 20 20" fill="none" xmlns="http://www.w3.org/2000/svg">
<path d="M6.25 3C6.84674 3 7.41903 3.22827 7.84099 3.6346C8.26295 4.04093 8.5 4.59203 8.5 5.16667V13.8333C8.5 14.408 8.26295 14.9591 7.84099 15.3654C7.41903 15.7717 6.84674 16 6.25 16C5.65326 16 5.08097 15.7717 4.65901 15.3654C4.23705 14.9591 4 14.408 4 13.8333V5.16667C4 4.59203 4.23705 4.04093 4.65901 3.6346C5.08097 3.22827 5.65326 3 6.25 3V3ZM13.75 3C14.3467 3 14.919 3.22827 15.341 3.6346C15.7629 4.04093 16 4.59203 16 5.16667V13.8333C16 14.408 15.7629 14.9591 15.341 15.3654C14.919 15.7717 14.3467 16 13.75 16C13.1533 16 12.581 15.7717 12.159 15.3654C11.7371 14.9591 11.5 14.408 11.5 13.8333V5.16667C11.5 4.59203 11.7371 4.04093 12.159 3.6346C12.581 3.22827 13.1533 3 13.75 3Z" fill="current"/>
</svg>
