<svg width="100%" height="100%" viewBox="0 0 64 64" fill="none" xmlns="http://www.w3.org/2000/svg">
<rect x="4" y="4" width="57" height="56" fill="white"/>
<path d="M57.0796 0.0488281H6.84955C3.06803 0.0488281 0 3.11686 0 6.89838V57.1284C0 60.9099 3.06803 63.978 6.84955 63.978H57.0796C60.8611 63.978 63.9291 60.9099 63.9291 57.1284V6.89838C63.9291 3.11686 60.8611 0.0488281 57.0796 0.0488281ZM50.1016 22.7094C50.1302 23.109 50.1302 23.5228 50.1302 23.9224C50.1302 36.2944 40.712 50.55 23.5025 50.55C18.1941 50.55 13.271 49.0088 9.13274 46.3546C9.88904 46.4403 10.6168 46.4688 11.3874 46.4688C15.7682 46.4688 19.7924 44.9847 23.0031 42.4732C18.8933 42.3876 15.44 39.6906 14.2556 35.9804C15.6969 36.1945 16.9955 36.1945 18.4795 35.8092C14.1986 34.9387 10.9878 31.1715 10.9878 26.6194V26.5052C12.2293 27.2044 13.6848 27.6325 15.2117 27.6896C13.928 26.8358 12.8757 25.6774 12.1486 24.3179C11.4216 22.9583 11.0424 21.44 11.0449 19.8983C11.0449 18.1573 11.5015 16.5591 12.3149 15.1749C16.9241 20.8543 23.845 24.5645 31.6078 24.9641C30.2807 18.614 35.0326 13.4625 40.7406 13.4625C43.4376 13.4625 45.8635 14.5899 47.5758 16.4164C49.6878 16.0168 51.7141 15.232 53.5121 14.1618C52.8129 16.3308 51.3431 18.1573 49.4024 19.3132C51.286 19.1134 53.1126 18.5854 54.7964 17.8577C53.5264 19.727 51.9282 21.3823 50.1016 22.7094Z" fill="rgb(50, 50, 50)"/>
</svg>
