<svg width="18" height="20" viewBox="0 0 18 20" fill="none" xmlns="http://www.w3.org/2000/svg">
<path fill-rule="evenodd" clip-rule="evenodd" d="M9.00001 0C8.13751 0 6.69626 0.33125 5.34001 0.7C3.95251 1.075 2.55376 1.51875 1.73126 1.7875C1.38737 1.90106 1.0825 2.10933 0.851653 2.38838C0.620811 2.66742 0.473366 3.00592 0.426257 3.365C-0.318743 8.96125 1.41001 13.1088 3.50751 15.8525C4.39698 17.0262 5.45754 18.0598 6.65376 18.9188C7.13626 19.26 7.58376 19.5213 7.96376 19.7C8.31376 19.865 8.69001 20 9.00001 20C9.31001 20 9.68501 19.865 10.0363 19.7C10.4944 19.4773 10.9326 19.216 11.3463 18.9188C12.5425 18.0598 13.6031 17.0262 14.4925 15.8525C16.59 13.1088 18.3188 8.96125 17.5738 3.365C17.5267 3.00575 17.3793 2.66705 17.1485 2.38779C16.9177 2.10853 16.6127 1.90004 16.2688 1.78625C15.0748 1.39477 13.8715 1.03216 12.66 0.69875C11.3038 0.3325 9.86251 0 9.00001 0ZM9.00001 6.25C9.44281 6.24934 9.87155 6.40541 10.2103 6.69058C10.5491 6.97574 10.776 7.37159 10.8508 7.80801C10.9257 8.24444 10.8437 8.69328 10.6193 9.07503C10.3949 9.45678 10.0427 9.74681 9.62501 9.89375L10.1063 12.3812C10.1238 12.4717 10.1211 12.565 10.0983 12.6543C10.0756 12.7436 10.0334 12.8267 9.9747 12.8978C9.91605 12.9689 9.8424 13.0261 9.75904 13.0654C9.67568 13.1047 9.58466 13.125 9.49251 13.125H8.50751C8.41546 13.1248 8.32458 13.1043 8.24138 13.065C8.15817 13.0256 8.08468 12.9684 8.02617 12.8973C7.96765 12.8263 7.92555 12.7432 7.90288 12.654C7.88021 12.5647 7.87752 12.4716 7.89501 12.3812L8.37501 9.89375C7.9573 9.74681 7.60507 9.45678 7.38071 9.07503C7.15636 8.69328 7.07434 8.24444 7.1492 7.80801C7.22406 7.37159 7.45096 6.97574 7.78971 6.69058C8.12846 6.40541 8.55721 6.24934 9.00001 6.25Z" fill="current"/>
</svg>
